<svg xmlns="http://www.w3.org/2000/svg" viewBox="0 0 51.7 51.6">
    <defs>
        <style>.\32 4225771-be4d-43a5-b885-2b9d276d7378{fill:#f0545e;} </style>
    </defs>
    <title>instagram</title>
    <g id="cd4fdc24-bb8d-4fdf-9a4b-15cbcb0de004" data-name="Layer 2">
        <g id="512b5ebf-547f-4d07-895c-10cbd8a7b7b2" data-name="svg3003">
            <g id="deb78a71-a31e-4512-b6ae-dd3d08d4bda8" data-name="layer1">
                <path id="9028a9df-70f7-4ac3-b299-c1140926e947" data-name="rect3687" class="24225771-be4d-43a5-b885-2b9d276d7378" d="M15,0A15,15,0,0,0,0,15V36.6a15,15,0,0,0,15,15H36.7a15,15,0,0,0,15-15V15a15,15,0,0,0-15-15Zm0,4.4H36.7A10.5,10.5,0,0,1,47.3,15V36.6A10.5,10.5,0,0,1,36.7,47.1H15A10.5,10.5,0,0,1,4.4,36.6V15A10.5,10.5,0,0,1,15,4.4ZM39.7,8.9A3.1,3.1,0,1,0,42.8,12,3.1,3.1,0,0,0,39.7,8.9ZM25.8,12.5A13.3,13.3,0,1,0,39.1,25.8,13.3,13.3,0,0,0,25.8,12.5Zm0,4.4A8.8,8.8,0,1,1,17,25.8,8.8,8.8,0,0,1,25.8,16.9Z" />
            </g>
        </g>
    </g>
</svg>