<svg xmlns="http://www.w3.org/2000/svg" width="50.8" height="51.1" viewBox="0 0 50.8 51.1">
    <defs>
        <style>.\38 f678363-9a23-4266-b3f3-7c32785b0c72{fill:#f0545e;}</style>
    </defs>
    <title>linkedin</title>
    <g id="6582af67-e1e4-4831-8b8d-a449f0bbb015" data-name="Layer 2">
        <g id="11711a74-6dc9-4442-84aa-f983b14cf686" data-name="svg3003">
            <g id="faccb549-1d18-4313-a7a2-8eab93257902" data-name="layer1">
                <path id="3002f51e-4616-438a-8860-2d3f6864a392" data-name="path4157" class="8f678363-9a23-4266-b3f3-7c32785b0c72" d="M3.8,0A3.7,3.7,0,0,0,0,3.7V47.4a3.7,3.7,0,0,0,3.8,3.7H47a3.7,3.7,0,0,0,3.8-3.7V3.7A3.7,3.7,0,0,0,47,0Zm7.9,8.6a4,4,0,1,1-.1,8h0a4,4,0,1,1,.1-8ZM34.2,19.2c5,0,8.8,3.3,8.8,10.4V42.8H35.4V30.4c0-3.1-1.1-5.2-3.9-5.2A4.2,4.2,0,0,0,27.6,28a5.2,5.2,0,0,0-.2,1.9V42.8H19.6s.1-20.9,0-23.1h7.7V23a7.6,7.6,0,0,1,6.9-3.8ZM27.3,23h0ZM7.7,19.7h7.7V42.8H7.7V19.7Z" />
            </g>
        </g>
    </g>
</svg>