<svg xmlns="http://www.w3.org/2000/svg" width="534.5" height="146" viewBox="0 0 534.5 146"><defs><style>.\32 ec760f2-c919-4dc2-bb9f-f7f8202d36e9{fill:#191919;stroke:#191919;stroke-width:4px;}.\32 ec760f2-c919-4dc2-bb9f-f7f8202d36e9,.\38 394e3ab-befe-4b51-98b8-c334b33c8285{stroke-miterlimit:10;}.\38 394e3ab-befe-4b51-98b8-c334b33c8285{fill:#3f3f3f;stroke:#424242;stroke-width:2.27px;}</style></defs><title>logo_1</title><g id="43553d09-5f75-4341-82b7-2ee39da1ca8b" data-name="Layer 2"><g id="ceaa7230-7e16-4c07-924c-edec530f3f07" data-name="Layer 9"><path class="2ec760f2-c919-4dc2-bb9f-f7f8202d36e9" d="M51.1,2a49.1,49.1,0,0,0-49,49h0v2.2H2v59.8A31.3,31.3,0,0,0,55.4,135a31.1,31.1,0,0,0,9.3-21.9V51.3a13.6,13.6,0,0,0-27.2,0v61.8a4.1,4.1,0,1,1-8.3,0V49.4a22,22,0,0,1,43.7-.1v81.1a13.6,13.6,0,0,0,27.2,0V51A49.1,49.1,0,0,0,51.1,2Z"/></g><g id="10db4e0a-f7a7-43b0-90fe-3d3f0a5d2f5a" data-name="Layer 8"><path class="8394e3ab-befe-4b51-98b8-c334b33c8285" d="M213.5,39.8a24,24,0,0,0-12.9,3.6,21.6,21.6,0,0,0-8.7,9.5V41.5h-6.3v67.3h6.3V64.4a23.3,23.3,0,0,1,7.6-13.7,20.8,20.8,0,0,1,14.1-5.4A17.6,17.6,0,0,1,226,50.2,15.7,15.7,0,0,1,231.2,62v46.7h6.3V62a20.9,20.9,0,0,0-7.1-15.8A23.9,23.9,0,0,0,213.5,39.8Z"/><path class="8394e3ab-befe-4b51-98b8-c334b33c8285" d="M282.5,39.1q-13.6,0-21.8,9.8t-8.2,26.2q0,16.3,8.2,26.2t21.8,9.8a33.1,33.1,0,0,0,19.9-6.2q8.5-6.2,10.1-15.5h-6.3a22.8,22.8,0,0,1-9.2,11.5,25.8,25.8,0,0,1-14.5,4.3,20.8,20.8,0,0,1-17.2-8.2q-6.5-8.2-6.5-21.9h53.7v-3q0-15-8.2-24T282.5,39.1Zm23.7,30H258.8V67.4a24.5,24.5,0,0,1,7.7-16.3,22.4,22.4,0,0,1,15.9-6.5A23.2,23.2,0,0,1,298.6,51a23.9,23.9,0,0,1,7.6,15.8Z"/><polygon class="8394e3ab-befe-4b51-98b8-c334b33c8285" points="383.1 99.1 367.5 41.5 360.4 41.5 344.7 100.4 325.5 41.5 319.5 41.5 341.7 108.8 347.7 108.8 363.9 50.5 380.1 108.8 386.1 108.8 408.4 41.5 402.2 41.5 383.1 99.1"/><rect class="8394e3ab-befe-4b51-98b8-c334b33c8285" x="454.2" y="40.7" width="8.5" height="68.03"/><path class="8394e3ab-befe-4b51-98b8-c334b33c8285" d="M525,50q-8.3-9.3-22.2-9.3H481.6v68h21.3q13.9,0,22.2-9.3t8.4-24.7Q533.4,59.3,525,50Zm-6.2,44q-6,7.2-16,7.2H490.1V48.3h12.8q10,0,16,7.2t6,19.2Q524.9,86.7,518.8,94Z"/></g></g></svg>