<svg xmlns="http://www.w3.org/2000/svg" width="245.9" height="245.9" viewBox="0 0 245.9 245.9"><defs><style>.f9aba289-daf5-4fd2-844a-d7f9d3a7ebd3{fill:#191919;}.d64190d1-d0cc-4498-81f9-01e339059eee{fill:#fff;stroke:#fff;stroke-miterlimit:10;stroke-width:4px;}</style></defs><title>logoFavi</title><g id="99a61773-e66e-4d78-a1b4-5c9d4cdbcfc4" data-name="Layer 2"><g id="d1630181-2575-4ad5-a621-fc6b7734377a" data-name="Layer 9"><rect class="f9aba289-daf5-4fd2-844a-d7f9d3a7ebd3" width="245.9" height="245.92"/><path class="d64190d1-d0cc-4498-81f9-01e339059eee" d="M123,52a49.1,49.1,0,0,0-49,49h0v2.2h0V163a31.3,31.3,0,0,0,62.7,0V101.2a13.6,13.6,0,0,0-27.2,0v61.8a4.1,4.1,0,1,1-8.3,0V99.3a22,22,0,0,1,43.7-.1v81.1a13.6,13.6,0,0,0,27.2,0V101A49.1,49.1,0,0,0,123,52Z"/></g></g></svg>