<svg xmlns="http://www.w3.org/2000/svg" viewBox="0 0 415 255">
  <metadata><?xpacket begin="﻿" id="W5M0MpCehiHzreSzNTczkc9d"?>
<x:xmpmeta xmlns:x="adobe:ns:meta/" x:xmptk="Adobe XMP Core 5.6-c138 79.159824, 2016/09/14-01:09:01        ">
   <rdf:RDF xmlns:rdf="http://www.w3.org/1999/02/22-rdf-syntax-ns#">
      <rdf:Description rdf:about=""/>
   </rdf:RDF>
</x:xmpmeta>
                        
<?xpacket end="w"?></metadata>
<g>
    <rect x="405" width="10" height="10"/>
    <rect id="Rectangle_1_copy" data-name="Rectangle 1 copy" x="405" y="27" width="10" height="10"/>
    <rect id="Rectangle_1_copy_2" data-name="Rectangle 1 copy 2" x="405" y="54" width="10" height="10"/>
    <rect id="Rectangle_1_copy_2-2" data-name="Rectangle 1 copy 2" x="405" y="82" width="10" height="10"/>
    <rect id="Rectangle_1_copy_3" data-name="Rectangle 1 copy 3" x="405" y="109" width="10" height="10"/>
    <rect id="Rectangle_1_copy_3-2" data-name="Rectangle 1 copy 3" x="405" y="136" width="10" height="10"/>
    <rect id="Rectangle_1_copy_3-3" data-name="Rectangle 1 copy 3" x="405" y="163" width="10" height="10"/>
    <rect id="Rectangle_1_copy_3-4" data-name="Rectangle 1 copy 3" x="405" y="191" width="10" height="10"/>
    <rect id="Rectangle_1_copy_4" data-name="Rectangle 1 copy 4" x="405" y="218" width="10" height="10"/>
    <rect id="Rectangle_1_copy_4-2" data-name="Rectangle 1 copy 4" x="405" y="245" width="10" height="10"/>
  </g>
  <g id="Group_1_copy" data-name="Group 1 copy">
    <rect x="378" width="10" height="10"/>
    <rect id="Rectangle_1_copy-2" data-name="Rectangle 1 copy" x="378" y="27" width="10" height="10"/>
    <rect id="Rectangle_1_copy_2-3" data-name="Rectangle 1 copy 2" x="378" y="54" width="10" height="10"/>
    <rect id="Rectangle_1_copy_2-4" data-name="Rectangle 1 copy 2" x="378" y="82" width="10" height="10"/>
    <rect id="Rectangle_1_copy_3-5" data-name="Rectangle 1 copy 3" x="378" y="109" width="10" height="10"/>
    <rect id="Rectangle_1_copy_3-6" data-name="Rectangle 1 copy 3" x="378" y="136" width="10" height="10"/>
    <rect id="Rectangle_1_copy_3-7" data-name="Rectangle 1 copy 3" x="378" y="163" width="10" height="10"/>
    <rect id="Rectangle_1_copy_3-8" data-name="Rectangle 1 copy 3" x="378" y="191" width="10" height="10"/>
    <rect id="Rectangle_1_copy_4-3" data-name="Rectangle 1 copy 4" x="378" y="218" width="10" height="10"/>
    <rect id="Rectangle_1_copy_4-4" data-name="Rectangle 1 copy 4" x="378" y="245" width="10" height="10"/>
  </g>
  <g id="Group_1_copy_2" data-name="Group 1 copy 2">
    <rect x="351" width="10" height="10"/>
    <rect id="Rectangle_1_copy-3" data-name="Rectangle 1 copy" x="351" y="27" width="10" height="10"/>
    <rect id="Rectangle_1_copy_2-5" data-name="Rectangle 1 copy 2" x="351" y="54" width="10" height="10"/>
    <rect id="Rectangle_1_copy_2-6" data-name="Rectangle 1 copy 2" x="351" y="82" width="10" height="10"/>
    <rect id="Rectangle_1_copy_3-9" data-name="Rectangle 1 copy 3" x="351" y="109" width="10" height="10"/>
    <rect id="Rectangle_1_copy_3-10" data-name="Rectangle 1 copy 3" x="351" y="136" width="10" height="10"/>
    <rect id="Rectangle_1_copy_3-11" data-name="Rectangle 1 copy 3" x="351" y="163" width="10" height="10"/>
    <rect id="Rectangle_1_copy_3-12" data-name="Rectangle 1 copy 3" x="351" y="191" width="10" height="10"/>
    <rect id="Rectangle_1_copy_4-5" data-name="Rectangle 1 copy 4" x="351" y="218" width="10" height="10"/>
    <rect id="Rectangle_1_copy_4-6" data-name="Rectangle 1 copy 4" x="351" y="245" width="10" height="10"/>
  </g>
  <g id="Group_1_copy_3" data-name="Group 1 copy 3">
    <rect x="324" width="10" height="10"/>
    <rect id="Rectangle_1_copy-4" data-name="Rectangle 1 copy" x="324" y="27" width="10" height="10"/>
    <rect id="Rectangle_1_copy_2-7" data-name="Rectangle 1 copy 2" x="324" y="54" width="10" height="10"/>
    <rect id="Rectangle_1_copy_2-8" data-name="Rectangle 1 copy 2" x="324" y="82" width="10" height="10"/>
    <rect id="Rectangle_1_copy_3-13" data-name="Rectangle 1 copy 3" x="324" y="109" width="10" height="10"/>
    <rect id="Rectangle_1_copy_3-14" data-name="Rectangle 1 copy 3" x="324" y="136" width="10" height="10"/>
    <rect id="Rectangle_1_copy_3-15" data-name="Rectangle 1 copy 3" x="324" y="163" width="10" height="10"/>
    <rect id="Rectangle_1_copy_3-16" data-name="Rectangle 1 copy 3" x="324" y="191" width="10" height="10"/>
    <rect id="Rectangle_1_copy_4-7" data-name="Rectangle 1 copy 4" x="324" y="218" width="10" height="10"/>
    <rect id="Rectangle_1_copy_4-8" data-name="Rectangle 1 copy 4" x="324" y="245" width="10" height="10"/>
  </g>
  <g id="Group_1_copy_4" data-name="Group 1 copy 4">
    <rect x="297" width="10" height="10"/>
    <rect id="Rectangle_1_copy-5" data-name="Rectangle 1 copy" x="297" y="27" width="10" height="10"/>
    <rect id="Rectangle_1_copy_2-9" data-name="Rectangle 1 copy 2" x="297" y="54" width="10" height="10"/>
    <rect id="Rectangle_1_copy_2-10" data-name="Rectangle 1 copy 2" x="297" y="82" width="10" height="10"/>
    <rect id="Rectangle_1_copy_3-17" data-name="Rectangle 1 copy 3" x="297" y="109" width="10" height="10"/>
    <rect id="Rectangle_1_copy_3-18" data-name="Rectangle 1 copy 3" x="297" y="136" width="10" height="10"/>
    <rect id="Rectangle_1_copy_3-19" data-name="Rectangle 1 copy 3" x="297" y="163" width="10" height="10"/>
    <rect id="Rectangle_1_copy_3-20" data-name="Rectangle 1 copy 3" x="297" y="191" width="10" height="10"/>
    <rect id="Rectangle_1_copy_4-9" data-name="Rectangle 1 copy 4" x="297" y="218" width="10" height="10"/>
    <rect id="Rectangle_1_copy_4-10" data-name="Rectangle 1 copy 4" x="297" y="245" width="10" height="10"/>
  </g>
  <g id="Group_1_copy_5" data-name="Group 1 copy 5">
    <rect x="270" width="10" height="10"/>
    <rect id="Rectangle_1_copy-6" data-name="Rectangle 1 copy" x="270" y="27" width="10" height="10"/>
    <rect id="Rectangle_1_copy_2-11" data-name="Rectangle 1 copy 2" x="270" y="54" width="10" height="10"/>
    <rect id="Rectangle_1_copy_2-12" data-name="Rectangle 1 copy 2" x="270" y="82" width="10" height="10"/>
    <rect id="Rectangle_1_copy_3-21" data-name="Rectangle 1 copy 3" x="270" y="109" width="10" height="10"/>
    <rect id="Rectangle_1_copy_3-22" data-name="Rectangle 1 copy 3" x="270" y="136" width="10" height="10"/>
    <rect id="Rectangle_1_copy_3-23" data-name="Rectangle 1 copy 3" x="270" y="163" width="10" height="10"/>
    <rect id="Rectangle_1_copy_3-24" data-name="Rectangle 1 copy 3" x="270" y="191" width="10" height="10"/>
    <rect id="Rectangle_1_copy_4-11" data-name="Rectangle 1 copy 4" x="270" y="218" width="10" height="10"/>
    <rect id="Rectangle_1_copy_4-12" data-name="Rectangle 1 copy 4" x="270" y="245" width="10" height="10"/>
  </g>
  <g id="Group_1_copy_6" data-name="Group 1 copy 6">
    <rect x="243" width="10" height="10"/>
    <rect id="Rectangle_1_copy-7" data-name="Rectangle 1 copy" x="243" y="27" width="10" height="10"/>
    <rect id="Rectangle_1_copy_2-13" data-name="Rectangle 1 copy 2" x="243" y="54" width="10" height="10"/>
    <rect id="Rectangle_1_copy_2-14" data-name="Rectangle 1 copy 2" x="243" y="82" width="10" height="10"/>
    <rect id="Rectangle_1_copy_3-25" data-name="Rectangle 1 copy 3" x="243" y="109" width="10" height="10"/>
    <rect id="Rectangle_1_copy_3-26" data-name="Rectangle 1 copy 3" x="243" y="136" width="10" height="10"/>
    <rect id="Rectangle_1_copy_3-27" data-name="Rectangle 1 copy 3" x="243" y="163" width="10" height="10"/>
    <rect id="Rectangle_1_copy_3-28" data-name="Rectangle 1 copy 3" x="243" y="191" width="10" height="10"/>
    <rect id="Rectangle_1_copy_4-13" data-name="Rectangle 1 copy 4" x="243" y="218" width="10" height="10"/>
    <rect id="Rectangle_1_copy_4-14" data-name="Rectangle 1 copy 4" x="243" y="245" width="10" height="10"/>
  </g>
  <g id="Group_1_copy_7" data-name="Group 1 copy 7">
    <rect x="216" width="10" height="10"/>
    <rect id="Rectangle_1_copy-8" data-name="Rectangle 1 copy" x="216" y="27" width="10" height="10"/>
    <rect id="Rectangle_1_copy_2-15" data-name="Rectangle 1 copy 2" x="216" y="54" width="10" height="10"/>
    <rect id="Rectangle_1_copy_2-16" data-name="Rectangle 1 copy 2" x="216" y="82" width="10" height="10"/>
    <rect id="Rectangle_1_copy_3-29" data-name="Rectangle 1 copy 3" x="216" y="109" width="10" height="10"/>
    <rect id="Rectangle_1_copy_3-30" data-name="Rectangle 1 copy 3" x="216" y="136" width="10" height="10"/>
    <rect id="Rectangle_1_copy_3-31" data-name="Rectangle 1 copy 3" x="216" y="163" width="10" height="10"/>
    <rect id="Rectangle_1_copy_3-32" data-name="Rectangle 1 copy 3" x="216" y="191" width="10" height="10"/>
    <rect id="Rectangle_1_copy_4-15" data-name="Rectangle 1 copy 4" x="216" y="218" width="10" height="10"/>
    <rect id="Rectangle_1_copy_4-16" data-name="Rectangle 1 copy 4" x="216" y="245" width="10" height="10"/>
  </g>
  <g id="Group_1_copy_8" data-name="Group 1 copy 8">
    <rect x="189" width="10" height="10"/>
    <rect id="Rectangle_1_copy-9" data-name="Rectangle 1 copy" x="189" y="27" width="10" height="10"/>
    <rect id="Rectangle_1_copy_2-17" data-name="Rectangle 1 copy 2" x="189" y="54" width="10" height="10"/>
    <rect id="Rectangle_1_copy_2-18" data-name="Rectangle 1 copy 2" x="189" y="82" width="10" height="10"/>
    <rect id="Rectangle_1_copy_3-33" data-name="Rectangle 1 copy 3" x="189" y="109" width="10" height="10"/>
    <rect id="Rectangle_1_copy_3-34" data-name="Rectangle 1 copy 3" x="189" y="136" width="10" height="10"/>
    <rect id="Rectangle_1_copy_3-35" data-name="Rectangle 1 copy 3" x="189" y="163" width="10" height="10"/>
    <rect id="Rectangle_1_copy_3-36" data-name="Rectangle 1 copy 3" x="189" y="191" width="10" height="10"/>
    <rect id="Rectangle_1_copy_4-17" data-name="Rectangle 1 copy 4" x="189" y="218" width="10" height="10"/>
    <rect id="Rectangle_1_copy_4-18" data-name="Rectangle 1 copy 4" x="189" y="245" width="10" height="10"/>
  </g>
  <g id="Group_1_copy_9" data-name="Group 1 copy 9">
    <rect x="162" width="10" height="10"/>
    <rect id="Rectangle_1_copy-10" data-name="Rectangle 1 copy" x="162" y="27" width="10" height="10"/>
    <rect id="Rectangle_1_copy_2-19" data-name="Rectangle 1 copy 2" x="162" y="54" width="10" height="10"/>
    <rect id="Rectangle_1_copy_2-20" data-name="Rectangle 1 copy 2" x="162" y="82" width="10" height="10"/>
    <rect id="Rectangle_1_copy_3-37" data-name="Rectangle 1 copy 3" x="162" y="109" width="10" height="10"/>
    <rect id="Rectangle_1_copy_3-38" data-name="Rectangle 1 copy 3" x="162" y="136" width="10" height="10"/>
    <rect id="Rectangle_1_copy_3-39" data-name="Rectangle 1 copy 3" x="162" y="163" width="10" height="10"/>
    <rect id="Rectangle_1_copy_3-40" data-name="Rectangle 1 copy 3" x="162" y="191" width="10" height="10"/>
    <rect id="Rectangle_1_copy_4-19" data-name="Rectangle 1 copy 4" x="162" y="218" width="10" height="10"/>
    <rect id="Rectangle_1_copy_4-20" data-name="Rectangle 1 copy 4" x="162" y="245" width="10" height="10"/>
  </g>
  <g id="Group_1_copy_10" data-name="Group 1 copy 10">
    <rect x="135" width="10" height="10"/>
    <rect id="Rectangle_1_copy-11" data-name="Rectangle 1 copy" x="135" y="27" width="10" height="10"/>
    <rect id="Rectangle_1_copy_2-21" data-name="Rectangle 1 copy 2" x="135" y="54" width="10" height="10"/>
    <rect id="Rectangle_1_copy_2-22" data-name="Rectangle 1 copy 2" x="135" y="82" width="10" height="10"/>
    <rect id="Rectangle_1_copy_3-41" data-name="Rectangle 1 copy 3" x="135" y="109" width="10" height="10"/>
    <rect id="Rectangle_1_copy_3-42" data-name="Rectangle 1 copy 3" x="135" y="136" width="10" height="10"/>
    <rect id="Rectangle_1_copy_3-43" data-name="Rectangle 1 copy 3" x="135" y="163" width="10" height="10"/>
    <rect id="Rectangle_1_copy_3-44" data-name="Rectangle 1 copy 3" x="135" y="191" width="10" height="10"/>
    <rect id="Rectangle_1_copy_4-21" data-name="Rectangle 1 copy 4" x="135" y="218" width="10" height="10"/>
    <rect id="Rectangle_1_copy_4-22" data-name="Rectangle 1 copy 4" x="135" y="245" width="10" height="10"/>
  </g>
  <g id="Group_1_copy_11" data-name="Group 1 copy 11">
    <rect x="108" width="10" height="10"/>
    <rect id="Rectangle_1_copy-12" data-name="Rectangle 1 copy" x="108" y="27" width="10" height="10"/>
    <rect id="Rectangle_1_copy_2-23" data-name="Rectangle 1 copy 2" x="108" y="54" width="10" height="10"/>
    <rect id="Rectangle_1_copy_2-24" data-name="Rectangle 1 copy 2" x="108" y="82" width="10" height="10"/>
    <rect id="Rectangle_1_copy_3-45" data-name="Rectangle 1 copy 3" x="108" y="109" width="10" height="10"/>
    <rect id="Rectangle_1_copy_3-46" data-name="Rectangle 1 copy 3" x="108" y="136" width="10" height="10"/>
    <rect id="Rectangle_1_copy_3-47" data-name="Rectangle 1 copy 3" x="108" y="163" width="10" height="10"/>
    <rect id="Rectangle_1_copy_3-48" data-name="Rectangle 1 copy 3" x="108" y="191" width="10" height="10"/>
    <rect id="Rectangle_1_copy_4-23" data-name="Rectangle 1 copy 4" x="108" y="218" width="10" height="10"/>
    <rect id="Rectangle_1_copy_4-24" data-name="Rectangle 1 copy 4" x="108" y="245" width="10" height="10"/>
  </g>
  <g id="Group_1_copy_12" data-name="Group 1 copy 12">
    <rect x="81" width="10" height="10"/>
    <rect id="Rectangle_1_copy-13" data-name="Rectangle 1 copy" x="81" y="27" width="10" height="10"/>
    <rect id="Rectangle_1_copy_2-25" data-name="Rectangle 1 copy 2" x="81" y="54" width="10" height="10"/>
    <rect id="Rectangle_1_copy_2-26" data-name="Rectangle 1 copy 2" x="81" y="82" width="10" height="10"/>
    <rect id="Rectangle_1_copy_3-49" data-name="Rectangle 1 copy 3" x="81" y="109" width="10" height="10"/>
    <rect id="Rectangle_1_copy_3-50" data-name="Rectangle 1 copy 3" x="81" y="136" width="10" height="10"/>
    <rect id="Rectangle_1_copy_3-51" data-name="Rectangle 1 copy 3" x="81" y="163" width="10" height="10"/>
    <rect id="Rectangle_1_copy_3-52" data-name="Rectangle 1 copy 3" x="81" y="191" width="10" height="10"/>
    <rect id="Rectangle_1_copy_4-25" data-name="Rectangle 1 copy 4" x="81" y="218" width="10" height="10"/>
    <rect id="Rectangle_1_copy_4-26" data-name="Rectangle 1 copy 4" x="81" y="245" width="10" height="10"/>
  </g>
  <g id="Group_1_copy_13" data-name="Group 1 copy 13">
    <rect x="54" width="10" height="10"/>
    <rect id="Rectangle_1_copy-14" data-name="Rectangle 1 copy" x="54" y="27" width="10" height="10"/>
    <rect id="Rectangle_1_copy_2-27" data-name="Rectangle 1 copy 2" x="54" y="54" width="10" height="10"/>
    <rect id="Rectangle_1_copy_2-28" data-name="Rectangle 1 copy 2" x="54" y="82" width="10" height="10"/>
    <rect id="Rectangle_1_copy_3-53" data-name="Rectangle 1 copy 3" x="54" y="109" width="10" height="10"/>
    <rect id="Rectangle_1_copy_3-54" data-name="Rectangle 1 copy 3" x="54" y="136" width="10" height="10"/>
    <rect id="Rectangle_1_copy_3-55" data-name="Rectangle 1 copy 3" x="54" y="163" width="10" height="10"/>
    <rect id="Rectangle_1_copy_3-56" data-name="Rectangle 1 copy 3" x="54" y="191" width="10" height="10"/>
    <rect id="Rectangle_1_copy_4-27" data-name="Rectangle 1 copy 4" x="54" y="218" width="10" height="10"/>
    <rect id="Rectangle_1_copy_4-28" data-name="Rectangle 1 copy 4" x="54" y="245" width="10" height="10"/>
  </g>
  <g id="Group_1_copy_14" data-name="Group 1 copy 14">
    <rect x="27" width="10" height="10"/>
    <rect id="Rectangle_1_copy-15" data-name="Rectangle 1 copy" x="27" y="27" width="10" height="10"/>
    <rect id="Rectangle_1_copy_2-29" data-name="Rectangle 1 copy 2" x="27" y="54" width="10" height="10"/>
    <rect id="Rectangle_1_copy_2-30" data-name="Rectangle 1 copy 2" x="27" y="82" width="10" height="10"/>
    <rect id="Rectangle_1_copy_3-57" data-name="Rectangle 1 copy 3" x="27" y="109" width="10" height="10"/>
    <rect id="Rectangle_1_copy_3-58" data-name="Rectangle 1 copy 3" x="27" y="136" width="10" height="10"/>
    <rect id="Rectangle_1_copy_3-59" data-name="Rectangle 1 copy 3" x="27" y="163" width="10" height="10"/>
    <rect id="Rectangle_1_copy_3-60" data-name="Rectangle 1 copy 3" x="27" y="191" width="10" height="10"/>
    <rect id="Rectangle_1_copy_4-29" data-name="Rectangle 1 copy 4" x="27" y="218" width="10" height="10"/>
    <rect id="Rectangle_1_copy_4-30" data-name="Rectangle 1 copy 4" x="27" y="245" width="10" height="10"/>
  </g>
  <g id="Group_1_copy_15" data-name="Group 1 copy 15">
    <rect width="10" height="10"/>
    <rect id="Rectangle_1_copy-16" data-name="Rectangle 1 copy" y="27" width="10" height="10"/>
    <rect id="Rectangle_1_copy_2-31" data-name="Rectangle 1 copy 2" y="54" width="10" height="10"/>
    <rect id="Rectangle_1_copy_2-32" data-name="Rectangle 1 copy 2" y="82" width="10" height="10"/>
    <rect id="Rectangle_1_copy_3-61" data-name="Rectangle 1 copy 3" y="109" width="10" height="10"/>
    <rect id="Rectangle_1_copy_3-62" data-name="Rectangle 1 copy 3" y="136" width="10" height="10"/>
    <rect id="Rectangle_1_copy_3-63" data-name="Rectangle 1 copy 3" y="163" width="10" height="10"/>
    <rect id="Rectangle_1_copy_3-64" data-name="Rectangle 1 copy 3" y="191" width="10" height="10"/>
    <rect id="Rectangle_1_copy_4-31" data-name="Rectangle 1 copy 4" y="218" width="10" height="10"/>
    <rect id="Rectangle_1_copy_4-32" data-name="Rectangle 1 copy 4" y="245" width="10" height="10"/>
  </g>
</svg>
