<svg xmlns="http://www.w3.org/2000/svg" xmlns:xlink="http://www.w3.org/1999/xlink"  viewBox="0 0 932.7 121.4">
    <defs>
        <style>.\34 220109c-4ced-47f4-9beb-7823b8d46d3f{fill:url(#7306401d-6c95-4ea1-b010-0af54f57cabd);}.\34 0dca906-c12d-421f-bdc8-3fd0f0c319df{fill:url(#a05d1d7f-52f5-4a4d-b61b-6cca0eb2f49e);}</style>
        <linearGradient id="7306401d-6c95-4ea1-b010-0af54f57cabd" x1="-4.47" y1="60.72" x2="936.12" y2="60.72" gradientUnits="userSpaceOnUse">
            <stop offset="0" stop-color="#f0545e" />
            <stop offset="1" stop-color="#ea4c7a" />
        </linearGradient>
        <linearGradient id="a05d1d7f-52f5-4a4d-b61b-6cca0eb2f49e" x1="-4.47" y1="109.24" x2="936.12" y2="109.24" xlink:href="#7306401d-6c95-4ea1-b010-0af54f57cabd" />
    </defs>
    <title>text</title>
    <g id="e68877ad-a374-45c8-b356-299aac6012d2" data-name="Layer 2">
        <g id="5f24756b-717f-4e86-aaf6-28c092598bf9" data-name="Layer 8">
            <polygon class="4220109c-4ced-47f4-9beb-7823b8d46d3f" points="71.2 0 58.4 66.1 57.2 0 38 0 23.7 66.7 24.8 0 0 0 0.5 121.4 26.8 121.4 42.1 52.1 43.6 121.4 69.7 121.4 95.8 0 71.2 0" />
            <polygon class="4220109c-4ced-47f4-9beb-7823b8d46d3f" points="95.7 121.4 152.5 121.4 154.6 101.9 127.1 101.9 130.7 67.5 151 67.5 153.1 47.2 132.8 47.2 135.6 19.7 162.9 19.7 164.9 0 108.5 0 95.7 121.4" />
            <path class="4220109c-4ced-47f4-9beb-7823b8d46d3f" d="M228.6,0,193.7,121.4h27.6l6.2-24.5h16.1l1.3,24.5h26.8L262.4,0Zm3,80,10.5-45.6.8,45.6Z" />
            <path class="4220109c-4ced-47f4-9beb-7823b8d46d3f" d="M365.3,9.5a21.6,21.6,0,0,0-8.2-5.7A44,44,0,0,0,346,.8,102.1,102.1,0,0,0,332.4,0H296.6L283.9,121.4h29.3l5.6-53.8h6.4l8.9,53.8h29.4L351,63.3q9.4-4.5,13.9-12t5.7-19.2a50.7,50.7,0,0,0,.3-5.3,37.2,37.2,0,0,0-1-8.1A22.1,22.1,0,0,0,365.3,9.5ZM343.1,35.2q-.8,7.8-4.2,12.1t-10.9,4.2h-7.5l3.4-32.2H333q6.4,0,8.7,4.1a15.9,15.9,0,0,1,1.7,7.9A35.9,35.9,0,0,1,343.1,35.2Z" />
            <polygon class="4220109c-4ced-47f4-9beb-7823b8d46d3f" points="375.3 121.4 432.1 121.4 434.2 101.9 406.6 101.9 410.2 67.5 430.6 67.5 432.7 47.2 412.4 47.2 415.2 19.7 442.5 19.7 444.5 0 388 0 375.3 121.4" />
            <polygon class="4220109c-4ced-47f4-9beb-7823b8d46d3f" points="529.2 53.1 512.1 0 491.4 0 478.6 121.4 503.8 121.4 509.9 63.4 526.3 121.4 546.2 121.4 559 0 534.7 0 529.2 53.1" />
            <polygon class="4220109c-4ced-47f4-9beb-7823b8d46d3f" points="563.8 121.4 620.6 121.4 622.7 101.9 595.2 101.9 598.8 67.5 619.1 67.5 621.2 47.2 600.9 47.2 603.7 19.7 631 19.7 633 0 576.6 0 563.8 121.4" />
            <polygon class="4220109c-4ced-47f4-9beb-7823b8d46d3f" points="698.6 66.1 697.4 0 678.2 0 663.9 66.7 665 0 640.2 0 640.7 121.4 667 121.4 682.3 52.1 683.8 121.4 709.9 121.4 736 0 711.4 0 698.6 66.1" />
            <polygon class="4220109c-4ced-47f4-9beb-7823b8d46d3f" points="770.8 121.4 800 121.4 812.7 0 783.5 0 770.8 121.4" />
            <path class="4220109c-4ced-47f4-9beb-7823b8d46d3f" d="M894.6,9q-4.3-4.8-12.2-6.9T862.1,0H830.3L817.6,121.4h31.9a84.3,84.3,0,0,0,20.6-2.1,31.1,31.1,0,0,0,13.6-7,30.6,30.6,0,0,0,8-12,74.4,74.4,0,0,0,3.8-17.9l4.6-43.8a88.2,88.2,0,0,0,.6-9.7,56.6,56.6,0,0,0-.7-8.1A23.1,23.1,0,0,0,894.6,9ZM870.8,32.4l-5.9,56.3a45.7,45.7,0,0,1-1,5.8,10.4,10.4,0,0,1-1.9,3.7,6.9,6.9,0,0,1-3.7,2.4,24.1,24.1,0,0,1-6.3.7h-3l8.4-81h3q5.1,0,7.5,1.2a5.1,5.1,0,0,1,2.8,3.9,14,14,0,0,1,.3,3A32,32,0,0,1,870.8,32.4Z" />
            <polygon class="40dca906-c12d-421f-bdc8-3fd0f0c319df" points="907.9 97 905.3 121.4 930.2 121.4 932.7 97 907.9 97" />
        </g>
    </g>
</svg>