<svg xmlns="http://www.w3.org/2000/svg" viewBox="0 0 50.8 41.3">
    <defs>
        <style>.eb837221-ad31-4a8e-8386-5acbe2e883f5{fill:#f0545e;}</style>
    </defs>
    <title>twitter</title>
    <g id="6b786690-edd8-46a5-a5f6-8352fe029ac6" data-name="Layer 2">
        <g id="98d2e49a-37b9-4588-a375-a5c5e22d7299" data-name="svg3003">
            <g id="401b8bfc-6b06-45b8-9d11-c03023e62e6b" data-name="layer1">
                <path id="7db86ff1-f38f-4a21-972b-0a2704f5b653" data-name="path22" class="eb837221-ad31-4a8e-8386-5acbe2e883f5" d="M50.8,4.9a20.8,20.8,0,0,1-6,1.6A10.5,10.5,0,0,0,49.4.8a20.8,20.8,0,0,1-6.6,2.5A10.4,10.4,0,0,0,25,12.8,29.6,29.6,0,0,1,3.5,1.9,10.4,10.4,0,0,0,6.8,15.8,10.4,10.4,0,0,1,2,14.5H2a10.4,10.4,0,0,0,8.4,10.2,10.4,10.4,0,0,1-2.7.4l-2-.2a10.4,10.4,0,0,0,9.7,7.2A20.9,20.9,0,0,1,2.5,36.7H0a29.5,29.5,0,0,0,16,4.7c19.2,0,29.6-15.9,29.6-29.6q0-.7,0-1.3a21.2,21.2,0,0,0,5.2-5.4" />
            </g>
        </g>
    </g>
</svg>